Coordinates
version=1
nRows=12
nColumns=24
inDegrees=yes

Units are S.I. units (second, meters, Newtons, ...)
Angles are in degrees.

endheader
time	pelvis_tilt	pelvis_list	pelvis_rotation	pelvis_tx	pelvis_ty	pelvis_tz	hip_flexion_r	hip_adduction_r	hip_rotation_r	knee_angle_r	ankle_angle_r	subtalar_angle_r	mtp_angle_r	hip_flexion_l	hip_adduction_l	hip_rotation_l	knee_angle_l	ankle_angle_l	subtalar_angle_l	mtp_angle_l	lumbar_extension	lumbar_bending	lumbar_rotation
      0.70916667	     -1.87285708	     -5.25802144	     -6.78748784	     -0.52330603	      1.01293393	      0.33776047	     12.21373037	      8.62024550	     -0.67787256	    -13.15811018	     -2.91668264	    -12.93002296	     -0.72990324	     17.61886823	    -10.77974597	     -9.30190061	    -69.01081125	      3.01925450	    -15.23579319	     -8.83841840	     -9.69076456	      6.89043329	      6.89784098
      0.71333333	     -1.85790538	     -5.14327452	     -6.83613530	     -0.51788998	      1.01385969	      0.33817462	     11.73522585	      8.50740388	     -0.54823185	    -12.91662741	     -2.78740495	    -12.95139205	     -0.72624489	     18.19040665	    -10.68153637	     -9.26800609	    -68.72620739	      3.32299812	    -15.30720591	     -8.86389537	     -9.69876266	      6.71908369	      6.94724116
      0.71750000	     -1.76314702	     -4.95919889	     -6.93151021	     -0.51247109	      1.01494817	      0.33868026	     11.18625367	      8.31903335	     -0.36788907	    -12.69653902	     -2.64585015	    -12.92203964	     -0.71110603	     18.61656845	    -10.51254306	     -9.32008318	    -68.29103158	      3.59258806	    -15.29715953	     -9.02581668	     -9.81077346	      6.42611384	      7.15814365
      0.72166667	     -1.69660982	     -4.80688832	     -7.03651925	     -0.50706047	      1.01594388	      0.33921195	     10.65833105	      8.17226152	     -0.15633805	    -12.45717951	     -2.54369253	    -12.96940917	     -0.69354716	     19.05888610	    -10.39236672	     -9.39836849	    -67.79875202	      3.85107777	    -15.40191103	     -9.28946098	     -9.88862739	      6.18346361	      7.31913300
      0.72583333	     -1.71676911	     -4.69574705	     -7.06115215	     -0.50160178	      1.01671920	      0.33955990	     10.21783078	      8.05561683	     -0.05381832	    -12.20881076	     -2.43767394	    -13.01390983	     -0.69196172	     19.61493288	    -10.29674846	     -9.38187585	    -67.27719048	      4.11675310	    -15.45732113	     -9.31863198	     -9.84345989	      6.03014090	      7.35324083
      0.73000000	     -1.64464731	     -4.49562582	     -7.16851216	     -0.49618783	      1.01768618	      0.34007154	      9.69983457	      7.85049705	      0.16475793	    -11.98602777	     -2.33426023	    -13.03581588	     -0.68642494	     20.00129540	    -10.12042327	     -9.49875804	    -66.59506320	      4.26580643	    -15.57209781	     -9.48509649	     -9.92238868	      5.72802389	      7.50084296
      0.73416667	     -1.65506702	     -4.36674606	     -7.19713227	     -0.49076079	      1.01840472	      0.34041168	      9.26044666	      7.71243730	      0.28294725	    -11.74499098	     -2.26805956	    -13.10176015	     -0.68645619	     20.50317639	    -10.00436247	     -9.51795460	    -65.91814991	      4.52355290	    -15.65814616	     -9.54295441	     -9.90360793	      5.53314401	      7.56594252
      0.73833333	     -1.53898957	     -4.18136881	     -7.33650286	     -0.48526694	      1.01939717	      0.34101049	      8.68109147	      7.52217215	      0.54072096	    -11.50475594	     -2.15166058	    -13.13816024	     -0.68776349	     20.76825442	     -9.86804439	     -9.72331795	    -65.06431566	      4.60295873	    -15.84122752	     -9.75175524	    -10.01381033	      5.24339727	      7.75703857
      0.74250000	     -1.47771583	     -4.02588977	     -7.41768211	     -0.47978361	      1.02021921	      0.34148010	      8.15822767	      7.35735091	      0.73584228	    -11.25211264	     -2.08092168	    -13.22770168	     -0.69477351	     21.10391099	     -9.74601842	     -9.85894458	    -64.18365275	      4.73053820	    -15.96900533	     -9.94975768	    -10.06283113	      4.99228532	      7.88567680
      0.74666667	     -1.49024962	     -3.89583221	     -7.43598259	     -0.47432143	      1.02082100	      0.34177351	      7.72456417	      7.21139044	      0.84691525	    -11.01434365	     -2.02619849	    -13.31201726	     -0.69978919	     21.53577058	     -9.62534916	     -9.91086935	    -63.28750522	      4.93400580	    -16.07278630	    -10.01859881	    -10.03010819	      4.79562758	      7.94181706
      0.75083333	     -1.45612928	     -3.72597779	     -7.49689858	     -0.46881835	      1.02151439	      0.34216718	      7.24062092	      7.02524678	      1.01622816	    -10.77349494	     -1.95906394	    -13.40461684	     -0.70803166	     21.85918041	     -9.47634944	    -10.04894456	    -62.26689883	      5.01707798	    -16.25461870	    -10.11399704	    -10.04088127	      4.53685162	      8.02069027
      0.75500000	     -1.26383737	     -3.57036595	     -7.64757653	     -0.46330051	      1.02248640	      0.34278363	      6.56789932	      6.85041739	      1.32045973	    -10.51052984	     -1.83097407	    -13.44531738	     -0.72918634	     21.93057142	     -9.37947868	    -10.33434109	    -61.12444382	      4.99604693	    -16.47820126	    -10.34330612	    -10.25143029	      4.25660593	      8.23000892
